<?xml version="1.0" encoding="UTF-8" standalone="no"?>
<!-- Created with Inkscape (http://www.inkscape.org/) -->

<svg
   width="1023.9999"
   height="1023.9999"
   viewBox="0 0 270.93331 270.93331"
   version="1.1"
   id="svg1"
   xmlns="http://www.w3.org/2000/svg"
   xmlns:svg="http://www.w3.org/2000/svg">
  <defs
     id="defs1">
    <linearGradient
       id="swatch6">
      <stop
         style="stop-color:#91e4d5;stop-opacity:1;"
         offset="0"
         id="stop6" />
    </linearGradient>
  </defs>
  <g
     id="layer1">
    <rect
       style="fill:#18d1b0;fill-opacity:1;fill-rule:nonzero;stroke:none;stroke-width:1.04561;paint-order:fill markers stroke"
       id="rect3"
       width="269.31406"
       height="269.90204"
       x="0.86842108"
       y="0.86842108"
       ry="49.765015" />
    <path
       d="M 109.41687,70.488955 H 96.408886 q -2.322866,0 -3.871437,-1.95427 -1.548571,-1.954271 -1.548571,-4.69027 V 50.55536 q 0,-2.735972 -1.548573,-4.494837 -1.548571,-1.95427 -3.716572,-1.95427 h -3.406855 q -2.168001,0 -3.871431,1.95427 -1.703424,1.758865 -1.703424,4.494837 v 13.289055 q 0,2.735999 -1.54857,4.69027 -1.393722,1.95427 -3.561723,1.95427 H 42.363732 q -2.322852,0 -3.871425,1.95427 -1.393718,1.758839 -1.393718,4.494812 v 4.103974 q 0,2.931404 1.393718,4.885676 1.548573,1.954295 3.871425,1.954295 H 71.63173 q 2.168001,0 3.561723,1.954271 1.54857,1.758838 1.54857,4.690243 V 208.26514 q 0,2.73598 1.703424,4.49484 1.70343,1.95428 3.871431,1.95428 h 3.406855 q 2.168001,0 3.716572,-1.95428 1.548573,-1.75886 1.548573,-4.49484 V 94.526496 q 0,-2.931405 1.548571,-4.690243 1.548571,-1.954271 3.871437,-1.954271 h 30.816564 q 2.16799,0 3.71658,-1.954295 1.54857,-1.954272 1.54857,-4.885676 v -4.103974 q 0,-2.931405 -1.54857,-4.690244 l -0.46457,-0.390838 q -2.01316,2.149677 -4.49088,3.517676 -2.47769,1.367974 -5.41999,1.367974 -6.96857,0 -11.14972,-6.25365 z M 44.531734,189.50412 q 0,2.93143 -1.858283,4.88568 -1.85829,1.75883 -3.716573,1.75883 -1.858289,0 -3.252002,1.75889 -1.23886,1.95425 -1.23886,4.69022 v 4.49484 q 0,2.54054 1.70343,4.49482 1.703432,1.95427 3.871434,1.95427 h 11.614282 q 2.477713,0 3.871432,-1.95427 1.548571,-1.75885 1.548571,-4.69025 l 7.742857,-100.44959 q 0,-2.73598 -1.548572,-4.49482 -1.393719,-1.954265 -3.716572,-1.954265 h -3.561713 q -2.322861,0 -3.871433,1.954265 -1.548572,1.75884 -1.548572,4.49482 z m 65.504556,17.39303 q 0,2.9314 1.39372,4.69025 1.54857,1.95427 4.02629,1.95427 h 11.924 q 2.168,0 3.87142,-1.95427 1.70344,-1.95428 1.70344,-4.49482 v -4.49484 q 0,-2.73597 -1.39371,-4.69022 -1.23885,-1.75889 -3.09715,-1.75889 -1.85829,0 -3.87143,-1.75883 -2.01313,-1.95425 -2.01313,-4.88568 l -6.03945,-83.05656 q 0,-2.73598 -1.54855,-4.49482 -1.39372,-1.954265 -3.40686,-1.954265 h -3.71658 q -2.47771,0 -4.02629,1.954265 -1.54856,1.75884 -1.54856,4.49482 z m 2.78744,-137.776195 q 3.25199,3.517677 7.74286,3.517677 4.95543,0 8.20742,-4.29938 3.252,-4.299405 3.252,-9.966809 0,-5.66738 -3.252,-9.966785 -3.25199,-4.494812 -8.20742,-4.494812 -5.26514,0 -8.36228,4.494812 -3.09715,4.299405 -3.09715,9.966785 0,6.2537 3.71657,10.748512 z m 7.74286,-3.90854 q -2.47772,0 -4.0263,-2.149704 -1.39369,-2.149702 -1.39369,-4.690268 0,-2.540542 1.39369,-4.494813 1.54858,-2.149702 4.0263,-2.149702 2.168,0 3.71657,2.149702 1.54858,1.954271 1.54858,4.494813 0,2.540566 -1.70344,4.690268 -1.70344,2.149704 -3.56171,2.149704 z m 71.23438,142.857295 q 0,6.64455 5.42,6.64455 h 30.0423 q 5.26513,0 6.8137,-6.44912 l 12.69829,-59.40986 q 0.15485,-0.78173 0.15485,-1.368 0.15487,-0.5863 0.15487,-0.97716 0,-4.29938 -4.336,-4.29938 h -3.71658 q -5.26513,0 -6.81371,6.64454 l -9.13656,41.82143 q -1.54858,6.44909 -6.81372,6.44909 h -4.80058 q -2.4777,0 -4.02627,-1.75884 -1.39372,-1.56344 -1.39372,-4.8857 V 51.141631 q 0,-6.644513 -5.42,-6.644513 h -3.40687 q -2.47772,0 -4.02628,1.758838 -1.39372,1.563432 -1.39372,4.885675 z m -39.17886,6.64455 h 6.03944 q 2.32285,0 4.80056,-1.36801 2.63257,-1.17257 4.49086,-3.32227 l 3.40684,-4.10397 q 1.70346,-2.1497 2.63258,-5.47194 1.08401,-3.12684 1.08401,-5.86282 V 53.095902 q 0,-2.735973 -1.70343,-4.494812 -1.54857,-1.95427 -3.71656,-1.95427 h -3.40687 q -2.168,0 -3.87142,1.95427 -1.54858,1.758839 -1.54858,4.494812 V 190.48126 q 0,2.9314 -1.85829,4.69027 -1.85828,1.95427 -4.02627,1.95427 h -2.32287 q -2.16798,0 -3.71656,1.95426 -1.54859,1.95427 -1.54859,4.69025 v 4.2994 q 0,2.736 1.54859,4.69027 1.54858,1.95428 3.71656,1.95428 z"
       id="text2"
       style="font-size:188.007px;font-family:'WDXL Lubrifont JP N';-inkscape-font-specification:'WDXL Lubrifont JP N, Normal';white-space:pre;stroke:#43d0b7;stroke-width:0.925304;stroke-opacity:1"
       aria-label="ポル" />
  </g>
</svg>
